<mxfile host="app.diagrams.net" modified="2024-06-03T21:11:02.439Z" agent="Mozilla/5.0 (Windows NT 10.0; Win64; x64) AppleWebKit/537.36 (KHTML, like Gecko) Chrome/122.0.0.0 YaBrowser/24.4.0.0 Safari/537.36" etag="jVnhL7soUb0c0JcLUc6S" version="24.4.13" type="device">
  <diagram name="Страница — 1" id="tK6rdU9yK3GsA9eToHEq">
    <mxGraphModel dx="2234" dy="1641" grid="1" gridSize="10" guides="1" tooltips="1" connect="1" arrows="1" fold="1" page="0" pageScale="1" pageWidth="2336" pageHeight="1654" math="0" shadow="0">
      <root>
        <mxCell id="0" />
        <mxCell id="1" parent="0" />
        <mxCell id="Xo2gfTLUJfPY3YAQMC_2-1" value="Пользователь" style="rounded=1;whiteSpace=wrap;html=1;" vertex="1" parent="1">
          <mxGeometry x="-790" y="-370" width="120" height="60" as="geometry" />
        </mxCell>
        <mxCell id="Xo2gfTLUJfPY3YAQMC_2-13" style="edgeStyle=none;curved=1;rounded=0;orthogonalLoop=1;jettySize=auto;html=1;entryX=0.5;entryY=0;entryDx=0;entryDy=0;fontSize=12;startSize=8;endSize=8;" edge="1" parent="1" source="Xo2gfTLUJfPY3YAQMC_2-2" target="Xo2gfTLUJfPY3YAQMC_2-3">
          <mxGeometry relative="1" as="geometry" />
        </mxCell>
        <mxCell id="Xo2gfTLUJfPY3YAQMC_2-2" value="Личный кабинет" style="rounded=1;whiteSpace=wrap;html=1;" vertex="1" parent="1">
          <mxGeometry x="-560" y="-420" width="120" height="60" as="geometry" />
        </mxCell>
        <mxCell id="Xo2gfTLUJfPY3YAQMC_2-14" style="edgeStyle=none;curved=0;rounded=0;orthogonalLoop=1;jettySize=auto;html=1;entryX=0;entryY=0.5;entryDx=0;entryDy=0;fontSize=12;startSize=8;endSize=8;" edge="1" parent="1" source="Xo2gfTLUJfPY3YAQMC_2-3" target="Xo2gfTLUJfPY3YAQMC_2-4">
          <mxGeometry relative="1" as="geometry">
            <Array as="points">
              <mxPoint x="-420" y="-290" />
              <mxPoint x="-420" y="-390" />
            </Array>
          </mxGeometry>
        </mxCell>
        <mxCell id="Xo2gfTLUJfPY3YAQMC_2-3" value="Каталог товаров" style="rounded=1;whiteSpace=wrap;html=1;" vertex="1" parent="1">
          <mxGeometry x="-560" y="-320" width="120" height="60" as="geometry" />
        </mxCell>
        <mxCell id="Xo2gfTLUJfPY3YAQMC_2-15" style="edgeStyle=none;curved=1;rounded=0;orthogonalLoop=1;jettySize=auto;html=1;exitX=0.5;exitY=1;exitDx=0;exitDy=0;entryX=0.5;entryY=0;entryDx=0;entryDy=0;fontSize=12;startSize=8;endSize=8;" edge="1" parent="1" source="Xo2gfTLUJfPY3YAQMC_2-4" target="Xo2gfTLUJfPY3YAQMC_2-5">
          <mxGeometry relative="1" as="geometry" />
        </mxCell>
        <mxCell id="Xo2gfTLUJfPY3YAQMC_2-4" value="База данных товаров" style="rounded=1;whiteSpace=wrap;html=1;" vertex="1" parent="1">
          <mxGeometry x="-400" y="-420" width="120" height="60" as="geometry" />
        </mxCell>
        <mxCell id="Xo2gfTLUJfPY3YAQMC_2-16" style="edgeStyle=none;curved=0;rounded=0;orthogonalLoop=1;jettySize=auto;html=1;exitX=1;exitY=0.5;exitDx=0;exitDy=0;entryX=0;entryY=0.5;entryDx=0;entryDy=0;fontSize=12;startSize=8;endSize=8;" edge="1" parent="1" source="Xo2gfTLUJfPY3YAQMC_2-5" target="Xo2gfTLUJfPY3YAQMC_2-6">
          <mxGeometry relative="1" as="geometry">
            <Array as="points">
              <mxPoint x="-260" y="-290" />
              <mxPoint x="-260" y="-390" />
            </Array>
          </mxGeometry>
        </mxCell>
        <mxCell id="Xo2gfTLUJfPY3YAQMC_2-5" value="База данных складов" style="rounded=1;whiteSpace=wrap;html=1;" vertex="1" parent="1">
          <mxGeometry x="-400" y="-320" width="120" height="60" as="geometry" />
        </mxCell>
        <mxCell id="Xo2gfTLUJfPY3YAQMC_2-17" style="edgeStyle=none;curved=1;rounded=0;orthogonalLoop=1;jettySize=auto;html=1;exitX=0.5;exitY=1;exitDx=0;exitDy=0;fontSize=12;startSize=8;endSize=8;" edge="1" parent="1" source="Xo2gfTLUJfPY3YAQMC_2-6" target="Xo2gfTLUJfPY3YAQMC_2-8">
          <mxGeometry relative="1" as="geometry" />
        </mxCell>
        <mxCell id="Xo2gfTLUJfPY3YAQMC_2-6" value="Административный модуль" style="rounded=1;whiteSpace=wrap;html=1;" vertex="1" parent="1">
          <mxGeometry x="-240" y="-420" width="120" height="60" as="geometry" />
        </mxCell>
        <mxCell id="Xo2gfTLUJfPY3YAQMC_2-7" value="Внешняя логистическая система" style="rounded=1;whiteSpace=wrap;html=1;" vertex="1" parent="1">
          <mxGeometry x="-80" y="-370" width="120" height="60" as="geometry" />
        </mxCell>
        <mxCell id="Xo2gfTLUJfPY3YAQMC_2-18" style="edgeStyle=none;curved=0;rounded=0;orthogonalLoop=1;jettySize=auto;html=1;exitX=1;exitY=0.5;exitDx=0;exitDy=0;entryX=0.5;entryY=1;entryDx=0;entryDy=0;fontSize=12;startSize=8;endSize=8;" edge="1" parent="1" source="Xo2gfTLUJfPY3YAQMC_2-8" target="Xo2gfTLUJfPY3YAQMC_2-7">
          <mxGeometry relative="1" as="geometry">
            <Array as="points">
              <mxPoint x="-20" y="-290" />
            </Array>
          </mxGeometry>
        </mxCell>
        <mxCell id="Xo2gfTLUJfPY3YAQMC_2-8" value="База данных пользователей" style="rounded=1;whiteSpace=wrap;html=1;" vertex="1" parent="1">
          <mxGeometry x="-240" y="-320" width="120" height="60" as="geometry" />
        </mxCell>
        <mxCell id="Xo2gfTLUJfPY3YAQMC_2-12" value="" style="endArrow=classic;html=1;rounded=0;fontSize=12;startSize=8;endSize=8;curved=0;exitX=1.008;exitY=0.633;exitDx=0;exitDy=0;exitPerimeter=0;entryX=0;entryY=0.5;entryDx=0;entryDy=0;" edge="1" parent="1" source="Xo2gfTLUJfPY3YAQMC_2-1" target="Xo2gfTLUJfPY3YAQMC_2-2">
          <mxGeometry width="50" height="50" relative="1" as="geometry">
            <mxPoint x="-620" y="-200" as="sourcePoint" />
            <mxPoint x="-570" y="-250" as="targetPoint" />
            <Array as="points">
              <mxPoint x="-640" y="-332" />
              <mxPoint x="-640" y="-390" />
            </Array>
          </mxGeometry>
        </mxCell>
      </root>
    </mxGraphModel>
  </diagram>
</mxfile>
